PathFileType	4	(X/Y/Z)	C:/Users/opensim2020/Desktop/walking_exp_matlab/subject03_walking15_straight_01.trc	
DataRate	CameraRate	NumFrames	NumMarkers	Units	OrigDataRate	OrigDataStartFrame	OrigNumFrames	
100.00	100.00	6	47	mm	100.00	599	196	
Frame#	Time	LFHD			RFHD			LBHD			RBHD			C7			T10			CLAV			STRN			RBAK			LSHO			LUPA			LELB			LFRM			LWRA			LWRB			LFIN			RSHO			RUPA			RELB			RFRM			RWRA			RWRB			RFIN			LASI			RASI			LPSI			RPSI			LTHI			LKNE			LTIB			LANK			LHEE			LTOE			RTHI			RKNE			RTIB			RANK			RHEE			RTOE			*39			*40			*41			*42			*43			*44			*45			*46			
		X1	Y1	Z1	X2	Y2	Z2	X3	Y3	Z3	X4	Y4	Z4	X5	Y5	Z5	X6	Y6	Z6	X7	Y7	Z7	X8	Y8	Z8	X9	Y9	Z9	X10	Y10	Z10	X11	Y11	Z11	X12	Y12	Z12	X13	Y13	Z13	X14	Y14	Z14	X15	Y15	Z15	X16	Y16	Z16	X17	Y17	Z17	X18	Y18	Z18	X19	Y19	Z19	X20	Y20	Z20	X21	Y21	Z21	X22	Y22	Z22	X23	Y23	Z23	X24	Y24	Z24	X25	Y25	Z25	X26	Y26	Z26	X27	Y27	Z27	X28	Y28	Z28	X29	Y29	Z29	X30	Y30	Z30	X31	Y31	Z31	X32	Y32	Z32	X33	Y33	Z33	X34	Y34	Z34	X35	Y35	Z35	X36	Y36	Z36	X37	Y37	Z37	X38	Y38	Z38	X39	Y39	Z39	X40	Y40	Z40	X41	Y41	Z41	X42	Y42	Z42	X43	Y43	Z43	X44	Y44	Z44	X45	Y45	Z45	X46	Y46	Z46	X47	Y47	Z47	

99	0.980	1378.30811	146.53578	1621.56921	1511.25195	145.11661	1630.97046	1385.63452	29.48243	1555.21277	1516.16125	32.54988	1564.75891	1439.57605	20.31519	1403.92651	1437.90344	0.32911	1093.37219	1448.40271	145.88545	1335.66077	1441.33276	199.74379	1172.91541	1525.63196	-26.73457	1224.06226	1291.14417	110.53275	1372.05847	1214.02124	150.76527	1185.75098	1202.33032	196.79240	1071.22217	1216.95740	274.25592	968.42297	1261.77722	338.58389	874.64935	1208.52026	325.48264	866.57184	1227.24268	379.61349	806.33746	1604.98926	84.89799	1354.39502	1676.03357	71.19471	1132.19788	1689.05273	79.85689	1019.17883	1692.15356	83.87972	881.96173	1657.74402	105.39688	784.01361	1701.33301	72.76467	781.79767	1692.67114	92.36059	709.69995	1315.51184	159.04590	933.09027	1552.85156	168.93385	931.39856	1373.63232	-0.42393	956.60742	1521.56970	6.03379	956.36578	1285.93030	63.60572	636.02765	1328.89319	31.02547	462.52991	1329.82007	-62.89325	286.02402	1375.63599	-128.94601	85.91401	1412.46936	-174.89529	58.54798	1395.77173	16.97488	34.08663	1604.63135	189.68681	644.19714	1571.84558	267.01645	483.37704	1573.46863	268.53415	292.86655	1527.29407	303.22214	78.69540	1469.19922	270.57440	42.35900	1518.97412	446.12460	62.97776	1429.04199	53.98698	1668.97375																					 
100	0.990	1379.14294	159.59979	1619.85327	1511.74512	157.99968	1629.26050	1385.84863	42.49204	1553.73633	1516.38989	45.37056	1563.10620	1440.17346	33.12879	1402.37415	1439.34949	12.68838	1091.83167	1448.33862	158.64313	1333.87695	1440.62549	212.31892	1171.14648	1526.36133	-13.64145	1222.26929	1291.44348	122.51638	1370.44104	1214.54248	164.67180	1185.01782	1202.96094	212.36725	1071.36218	1218.47070	293.34686	971.51373	1264.75891	361.12286	881.11707	1211.74316	348.14825	871.34912	1231.87585	404.13358	813.05573	1605.22913	98.35315	1352.49817	1676.20703	82.76335	1130.42529	1689.38855	90.40655	1017.37231	1692.58398	92.24902	880.09473	1658.53894	112.02163	781.49127	1702.11243	79.55861	780.10956	1693.15820	97.54462	707.54651	1315.41064	170.27045	931.49872	1552.42664	182.56639	929.65485	1375.52209	11.51253	954.56696	1523.45337	19.38065	954.46472	1286.27209	72.36082	635.42834	1328.76074	37.98432	462.24103	1329.98901	-58.88664	287.00110	1375.58936	-128.02625	87.89360	1412.26880	-174.32172	61.03584	1395.71643	17.05428	34.02592	1605.75452	198.61476	640.72443	1571.12158	277.50403	480.37741	1574.06970	287.52188	292.06564	1529.95618	333.08865	79.11929	1472.38562	302.56439	41.51326	1521.82825	477.63852	68.94196	1429.60168	66.85464	1667.25879																					 
101	1.000	1379.54456	172.70613	1618.36670	1512.21704	170.99023	1627.65112	1386.10449	55.54579	1552.25220	1516.67566	58.30133	1561.53564	1440.81885	45.87613	1400.67993	1440.87537	25.31728	1090.28027	1448.34375	171.51555	1332.19507	1439.93884	224.95633	1169.44873	1527.18921	-0.37637	1220.54468	1291.78564	134.60306	1368.99744	1215.24377	178.57948	1184.41858	1203.62048	227.88464	1071.52612	1220.04724	311.78656	974.72418	1267.59241	382.84885	887.68738	1215.00867	370.22363	876.46667	1236.36292	427.94247	820.12799	1605.55994	111.94273	1350.73010	1676.30481	94.72285	1128.79529	1689.59814	100.96486	1015.52917	1693.12085	101.08737	878.30426	1659.25842	119.27024	779.24792	1702.90881	86.80254	778.52045	1693.37280	102.47591	704.62042	1315.66235	182.00609	930.10095	1552.09229	196.16258	927.89532	1377.56873	23.36766	952.73474	1525.36914	32.78009	952.66388	1286.67834	81.78703	634.69598	1328.43274	45.48233	461.64722	1329.77197	-54.27256	288.00470	1375.25488	-126.77757	89.95378	1411.80957	-173.71210	63.94516	1395.68689	17.06989	33.88918	1607.50891	207.37985	637.13757	1570.35693	288.29837	477.77094	1574.70813	305.72247	291.73404	1532.70190	360.56720	80.40765	1475.56042	331.33554	41.23267	1524.36145	505.98798	75.20830	1430.11511	79.84901	1665.62280																					 
102	1.010	1380.01416	185.75972	1616.95068	1512.69543	183.97260	1626.17188	1386.44287	68.58278	1550.87134	1516.99939	71.26177	1560.10059	1441.65247	58.76186	1399.26355	1442.38354	38.10560	1088.88147	1448.40771	184.49905	1330.65369	1439.46667	237.74429	1167.79639	1528.16907	12.94964	1219.01013	1292.19946	146.56497	1367.59253	1216.00208	192.30484	1183.82202	1204.45349	242.90784	1071.79065	1221.65894	329.64465	977.96960	1270.31714	403.75949	894.31940	1218.04443	391.46600	881.72284	1240.56726	450.89273	827.43292	1605.96411	125.69241	1349.04211	1676.56104	107.00413	1127.14917	1689.93103	112.12946	1013.85181	1693.56213	110.17683	876.49530	1660.01331	126.88376	777.07928	1703.65100	94.62236	777.04456	1694.80774	109.04304	703.30066	1315.16650	193.05649	928.45013	1551.99219	209.96385	926.27448	1379.56897	35.44055	951.04791	1527.29126	46.41058	950.96985	1286.44580	91.36769	634.24274	1328.04712	53.66623	461.02905	1329.40491	-49.12979	289.07700	1374.68115	-125.62044	92.35229	1411.10535	-172.99565	67.31304	1395.69153	17.18444	33.76305	1609.65466	216.42422	633.96149	1569.95154	299.86008	475.75397	1575.62427	323.38766	291.71887	1534.56372	384.75760	81.71497	1477.77148	356.77051	41.29564	1526.29663	530.75891	80.45579	1426.96179	90.90652	1661.14282																					 
103	1.020	1380.50830	199.00571	1615.67615	1513.18188	197.07970	1624.87915	1386.78894	81.77511	1549.65930	1517.39990	84.26014	1558.86646	1442.56848	71.85017	1397.91809	1443.75537	50.93695	1087.73999	1448.56091	197.60017	1329.26709	1439.16223	250.67128	1166.44312	1529.20898	26.36945	1217.65881	1292.63904	158.72661	1366.45911	1216.79871	205.69278	1183.30859	1205.38171	257.41315	1071.96741	1223.34949	346.88409	981.28925	1273.02502	423.73120	900.94739	1221.05933	411.79340	887.06519	1244.53845	472.99072	835.04669	1606.38513	139.60475	1347.50220	1676.77222	119.63169	1125.65039	1690.27661	123.89603	1012.38208	1694.15796	119.83055	874.98779	1660.87646	135.03351	775.16492	1704.70618	102.65025	775.89929	1695.59363	115.26431	701.60498	1315.37207	205.23999	927.25830	1551.97534	223.62842	924.80017	1381.56885	47.73663	949.49799	1529.04834	60.11370	949.60535	1286.52930	101.55268	633.71765	1327.49109	62.62184	460.35565	1328.88574	-43.42197	290.27478	1373.98730	-123.94895	95.09968	1410.44067	-171.83470	71.21019	1395.57898	17.38334	33.69540	1611.65808	226.66357	631.50824	1569.79761	312.18881	474.58688	1576.12183	339.71332	291.64127	1535.58459	405.61462	82.56345	1478.65198	378.43176	41.39663	1527.49646	551.95190	83.99297	1427.22070	104.13558	1659.85791																					 
104	1.030	1381.01965	212.14780	1614.49731	1513.62036	210.16861	1623.69836	1387.21216	94.89308	1548.57251	1517.81470	97.36681	1557.75940	1443.47644	84.98275	1396.84363	1444.86304	64.09348	1086.63708	1448.82117	210.74042	1328.03381	1439.01501	263.74719	1165.21057	1530.35156	39.78231	1216.57813	1293.08459	170.97328	1365.47266	1217.52710	218.71579	1182.78076	1206.43835	271.48282	1072.25024	1225.07117	363.49121	984.69611	1275.71619	442.87985	907.63611	1224.00159	431.25400	892.47498	1248.20801	494.20905	842.86536	1606.93884	153.50676	1346.16467	1676.94714	132.60246	1124.34216	1690.48535	135.66180	1011.01050	1694.78186	129.93787	873.85034	1661.83313	143.60854	773.47040	1705.68604	111.23370	774.84833	1696.46533	122.16558	700.23218	1315.66333	217.67004	926.20508	1552.24866	237.43497	923.59302	1383.24768	60.78470	947.73181	1530.54236	73.77353	948.57123	1286.51758	112.33088	633.33215	1326.71594	72.24081	459.69650	1328.28284	-37.11862	291.61938	1373.30444	-121.94320	98.39920	1409.57239	-170.60652	75.68568	1395.49976	17.56128	33.56598	1612.42358	238.41632	630.07904	1569.79761	325.15332	474.00278	1576.61621	354.68542	291.16968	1535.75110	422.23773	82.46467	1479.10303	395.46899	41.08023	1527.35217	569.18054	85.30392	1431.11792	119.48432	1661.82373																					 
